<svg width="270" height="228" viewBox="0 0 270 228" fill="none" xmlns="http://www.w3.org/2000/svg">
<path d="M218.441 226.604C227.013 226.604 234.344 220.448 235.832 212.012L250.284 130.117L268.747 25.4799C270.121 17.6796 264.607 10.3376 256.726 9.49128L183.111 1.6048C177.289 0.984876 171.408 1.74495 165.942 3.8473C138.067 14.5585 48.7931 51.9317 1.04297 107.865C1.04297 107.865 1.73297 116.84 3.80836 130.117C7.66805 154.817 16.32 194.39 34.2223 218.631C37.9526 223.682 43.8984 226.604 50.1785 226.604" stroke="#000" stroke-miterlimit="10" stroke-linecap="round" stroke-linejoin="round"/>
<path d="M90.7314 113.293H59.3434H54.9824" stroke="#000" stroke-miterlimit="10" stroke-linecap="round" stroke-linejoin="round"/>
<path d="M52.8516 82.3566C97.9387 48.8808 152.373 26.3804 171.742 18.9413C174.798 17.7607 178.124 17.3349 181.391 17.6853L252.359 25.2914L236.828 113.293H109.639" stroke="#000" stroke-miterlimit="10" stroke-linecap="round" stroke-linejoin="round"/>
<path d="M36.8734 113.293H59.3443C63.9355 113.293 67.6577 109.571 67.6577 104.98V87.9547C67.6577 81.2218 60.0725 77.2818 54.5639 81.1533L31.7744 97.1705C29.4117 98.8308 28.0059 101.538 28.0059 104.426C28.0059 109.323 31.9761 113.293 36.8734 113.293Z" fill="#000" stroke="#000" stroke-miterlimit="10" stroke-linecap="round" stroke-linejoin="round"/>
<path d="M195.128 226.604H218.442C227.013 226.604 234.344 220.448 235.832 212.012L250.284 130.117H3.80859C7.66828 154.817 16.3202 194.39 34.2225 218.631C37.9528 223.682 43.8987 226.604 50.1788 226.604H176.231" stroke="#000" stroke-miterlimit="10" stroke-linecap="round" stroke-linejoin="round"/>
<path d="M159.328 167.099H192.214C201.718 167.099 209.819 160.205 211.338 150.822L211.84 147.727H139.955C139.955 158.426 148.629 167.099 159.328 167.099Z" fill="#000" stroke="#000" stroke-miterlimit="10" stroke-linecap="round" stroke-linejoin="round"/>
</svg>
