<svg id="Layer_1" viewBox="0 0 512 512" xmlns="http://www.w3.org/2000/svg" data-name="Layer 1" width="300" height="300" version="1.1" xmlns:xlink="http://www.w3.org/1999/xlink" xmlns:svgjs="http://svgjs.dev/svgjs"><g width="100%" height="100%" transform="matrix(1,0,0,1,0,0)"><path d="m504.5 98.52-55.578-32.088c-2.166-1.25-4.834-1.25-7 0l-55.577 32.088c-2.166 1.25-3.5 3.561-3.5 6.062v64.175c0 2.501 1.334 4.812 3.5 6.062l55.577 32.088c1.083.625 2.292.938 3.5.938s2.417-.313 3.5-.938l55.578-32.088c2.166-1.25 3.5-3.561 3.5-6.062v-64.175c0-2.501-1.334-4.812-3.5-6.062zm-10.5 58.113-41.578-24.005v-48.01l41.578 24.005zm-55.578-72.015v48.01l-41.577 24.005v-48.009l41.577-24.005zm7 108.144-41.577-24.005 41.577-24.005 41.578 24.005zm-271.702-76.101 7.901 1.558 5.473 13.209-4.486 6.689c-2.917 4.35-2.346 10.194 1.357 13.896l15.171 15.171c3.704 3.704 9.547 4.273 13.896 1.356l6.689-4.486 13.209 5.472 1.558 7.903c1.014 5.137 5.55 8.866 10.785 8.866h21.456c5.237 0 9.772-3.729 10.785-8.867l1.558-7.901 13.209-5.473 6.688 4.486c4.35 2.916 10.193 2.346 13.897-1.356l15.171-15.171c3.703-3.703 4.273-9.547 1.356-13.896l-4.485-6.689 5.473-13.209 7.9-1.558c5.138-1.012 8.867-5.548 8.867-10.786v-21.456c0-5.237-3.729-9.772-8.867-10.785l-7.9-1.558-5.473-13.209 4.485-6.688c2.917-4.35 2.347-10.194-1.356-13.897l-15.172-15.171c-3.702-3.701-9.545-4.272-13.895-1.356l-6.689 4.485-13.209-5.473-1.558-7.9c-1.013-5.138-5.548-8.867-10.785-8.867h-21.456c-5.236 0-9.771 3.729-10.786 8.867l-1.557 7.9-13.21 5.472-6.689-4.486c-4.349-2.917-10.193-2.345-13.895 1.357l-15.17 15.169c-3.705 3.704-4.275 9.549-1.358 13.897l4.486 6.689-5.473 13.209-7.9 1.558c-5.138 1.012-8.868 5.548-8.868 10.785v21.456c0 5.237 3.729 9.773 8.867 10.786zm5.133-29.769 9.153-1.805c2.297-.453 4.216-2.025 5.113-4.188l8.343-20.137c.896-2.164.651-4.633-.653-6.578l-5.197-7.75 11.675-11.675 7.75 5.197c1.945 1.305 4.414 1.55 6.578.653l20.137-8.342c2.164-.896 3.735-2.815 4.188-5.113l1.804-9.153h16.512l1.805 9.153c.453 2.298 2.025 4.217 4.188 5.113l20.137 8.342c2.164.896 4.632.651 6.578-.653l7.75-5.197 11.676 11.675-5.197 7.75c-1.305 1.945-1.55 4.414-.653 6.578l8.342 20.137c.896 2.164 2.815 3.735 5.113 4.188l9.153 1.805v16.512l-9.153 1.805c-2.297.453-4.216 2.025-5.113 4.188l-8.342 20.136c-.896 2.164-.651 4.632.653 6.578l5.198 7.751-11.675 11.675-7.75-5.198c-1.946-1.305-4.415-1.55-6.578-.653l-20.136 8.343c-2.164.896-3.735 2.815-4.188 5.113l-1.805 9.154h-16.512l-1.804-9.154c-.453-2.298-2.025-4.217-4.188-5.113l-20.137-8.342c-2.164-.897-4.633-.652-6.578.653l-7.75 5.197-11.675-11.675 5.197-7.75c1.305-1.945 1.55-4.414.653-6.578l-8.343-20.136c-.896-2.164-2.815-3.735-5.113-4.188l-9.153-1.805v-16.512zm77.147 58.409c27.654 0 50.153-22.499 50.153-50.153s-22.499-50.153-50.153-50.153-50.153 22.499-50.153 50.153 22.499 50.153 50.153 50.153zm0-86.306c19.935 0 36.153 16.218 36.153 36.153s-16.218 36.153-36.153 36.153-36.153-16.218-36.153-36.153 16.218-36.153 36.153-36.153zm142.494 284.167h-60.757c-1.979 0-3.866.838-5.193 2.306-1.327 1.469-1.971 3.43-1.771 5.399.255 2.521.385 5.09.385 7.638 0 41.442-33.715 75.158-75.158 75.158s-75.158-33.716-75.158-75.158c0-2.547.129-5.117.385-7.638.199-1.969-.444-3.931-1.771-5.399s-3.214-2.306-5.193-2.306h-60.757c-3.866 0-7 3.134-7 7v26.509c0 6.556 4.668 12.235 11.1 13.502l15.93 3.141 11.257 27.171-9.045 13.488c-3.651 5.445-2.936 12.761 1.699 17.395l25.69 25.69c4.635 4.635 11.952 5.35 17.396 1.698l13.487-9.044 27.171 11.257 3.141 15.93c1.269 6.432 6.947 11.1 13.502 11.1h36.333c6.557 0 12.235-4.669 13.502-11.1l3.141-15.929 27.172-11.257 13.485 9.043c5.445 3.653 12.762 2.939 17.397-1.697l25.69-25.691c4.635-4.635 5.35-11.951 1.699-17.396l-9.044-13.486 11.257-27.171 15.929-3.141c6.432-1.268 11.1-6.946 11.1-13.502v-26.509c0-3.866-3.134-7-7-7zm-7 33.314-19.415 3.828c-2.297.453-4.216 2.025-5.113 4.188l-14.127 34.099c-.896 2.164-.651 4.633.653 6.578l11.023 16.438-25.414 25.415-16.438-11.023c-1.945-1.305-4.414-1.549-6.578-.653l-34.099 14.127c-2.164.896-3.735 2.815-4.188 5.113l-3.829 19.416h-35.941l-3.828-19.416c-.453-2.298-2.025-4.216-4.188-5.113l-34.099-14.126c-2.164-.896-4.632-.652-6.578.653l-16.439 11.023-25.414-25.414 11.023-16.438c1.305-1.945 1.55-4.414.653-6.578l-14.127-34.099c-.896-2.164-2.815-3.735-5.113-4.188l-19.415-3.828v-19.314h46.347c-.007.448-.01.896-.01 1.343 0 49.162 39.996 89.158 89.158 89.158s89.158-39.996 89.158-89.158c0-.447-.003-.895-.01-1.343h46.347v19.314zm53.928-155.896c-3.866 0-7 3.134-7 7v31.5h-175.422v-52.499c0-3.866-3.134-7-7-7s-7 3.134-7 7v52.499h-175.422v-28.483c0-3.866-3.134-7-7-7s-7 3.134-7 7v35.483c0 3.866 3.134 7 7 7h182.422v22.005c-31.904 3.498-56.812 30.6-56.812 63.419 0 35.186 28.625 63.811 63.811 63.811s63.812-28.625 63.812-63.811c0-32.819-24.908-59.921-56.811-63.419v-22.005h182.422c3.866 0 7-3.134 7-7v-38.5c0-3.866-3.134-7-7-7zm-139.611 137.925c0 27.466-22.345 49.811-49.812 49.811s-49.811-22.345-49.811-49.811c0-25.089 18.649-45.895 42.812-49.309v38.385c0 3.866 3.134 7 7 7s7-3.134 7-7v-38.385c24.162 3.415 42.811 24.22 42.811 49.309zm-239.234-150.66c1.208 0 2.417-.313 3.5-.938l55.578-32.088c2.166-1.25 3.5-3.561 3.5-6.062v-64.175c0-2.501-1.334-4.812-3.5-6.062l-55.578-32.088c-2.166-1.25-4.834-1.25-7 0l-55.577 32.088c-2.166 1.25-3.5 3.561-3.5 6.062v64.175c0 2.501 1.334 4.812 3.5 6.062l55.577 32.088c1.083.625 2.292.938 3.5.938zm0-15.083-41.577-24.005 41.577-24.005 41.578 24.005zm48.578-36.13-41.578-24.005v-48.01l41.578 24.005zm-55.578-72.015v48.01l-41.577 24.005v-48.009l41.577-24.005z" fill="#000000" fill-opacity="1" data-original-color="#000000ff" stroke="none" stroke-opacity="1"/></g></svg>