<svg clip-rule="evenodd" fill-rule="evenodd" stroke-linejoin="round" stroke-miterlimit="2" viewBox="0 0 510 510" xmlns="http://www.w3.org/2000/svg"><path d="m339.77 437.008c-32.071 17.638-68.902 27.676-108.058 27.676-124.022 0-224.712-100.69-224.712-224.712s100.69-224.712 224.712-224.712 224.712 100.69 224.712 224.712c0 19.333-2.448 38.1-7.049 56.006l48.774 20.884c2.943 1.26 4.851 4.153 4.851 7.354v67.939c0 49.996-36.227 93.364-85.305 102.451-.963.179-1.951.179-2.914 0-33.429-6.193-60.904-28.311-75.011-57.598zm94.709-147.408c3.886-15.909 5.945-32.53 5.945-49.628 0-115.191-93.52-208.712-208.712-208.712-115.191 0-208.712 93.521-208.712 208.712s93.521 208.712 208.712 208.712c37.117 0 71.985-9.708 102.197-26.725-2.868-9.493-4.405-19.508-4.405-29.804v-67.939c0-.046.001-.091.001-.137-6.839-6.839-18.634-18.635-18.634-18.635l-19.269 5.144-5.144 19.268 36.452 36.452c1.966 1.966 2.77 4.811 2.124 7.515-.645 2.704-2.649 4.879-5.291 5.744-22.151 7.256-47.513 2.054-65.106-15.539-17.389-17.39-22.634-42.291-15.769-64.303 0 0-3.6-3.6-9.251-9.251l-77.845 77.845c-5.078 5.078-12.176 7.772-19.786 7.343-7.153-.404-14.197-3.579-19.54-8.922l-19.884-19.885c-5.343-5.343-8.519-12.387-8.922-19.539-.429-7.611 2.264-14.708 7.342-19.786l77.845-77.845c-4.73-4.731-7.665-7.666-7.665-7.666-21.973 6.901-46.926 1.607-64.257-15.724-17.658-17.657-22.795-42.954-15.54-65.106.865-2.642 3.04-4.645 5.744-5.291s5.55.158 7.515 2.124l36.443 36.443 19.23-5.182 5.182-19.23-36.442-36.443c-1.968-1.967-2.772-4.816-2.123-7.522s2.657-4.88 5.303-5.742c22.085-7.19 47.381-2.055 65.036 15.6 17.328 17.329 22.62 42.276 15.774 64.195 0 0 9.257 9.257 21.382 21.382l51.31-51.309c-5.701-5.559-25.117-22.961-52.132-30.829-2.714-.79-4.81-2.955-5.512-5.693-.702-2.739.093-5.645 2.092-7.644 20.038-20.038 50.11-22.625 79.95-7.436 3.34 1.699 13.361 8.556 15.981 11.177l45.624 45.624 4.98-4.98c3.124-3.124 8.189-3.124 11.313 0l22.056 22.056c3.124 3.124 3.124 8.189 0 11.313l-50.399 50.399c-3.124 3.124-8.189 3.124-11.313 0l-22.056-22.056c-3.124-3.124-3.124-8.189 0-11.314l5.004-5.003-12.232-12.232-51.297 51.297c12.894 12.893 22.967 22.967 22.967 22.967 21.958-6.81 46.854-1.567 64.241 15.819 8.908 8.908 14.639 19.808 17.192 31.265l50.911-21.806c2.011-.861 4.287-.861 6.298 0zm-92.73 24.095 5.376-2.303c-1.527-9.662-6.011-18.958-13.453-26.399-14.059-14.06-34.669-17.519-52.003-10.489-2.978 1.208-6.391.516-8.663-1.757l-84.877-84.877c-2.28-2.279-2.968-5.704-1.747-8.688 7.074-17.275 3.561-37.919-10.443-51.922-9.584-9.585-22.172-14.25-34.674-14.049l28.799 28.799c2.024 2.024 2.813 4.975 2.068 7.739l-7.583 28.142c-.742 2.752-2.891 4.902-5.643 5.643l-28.143 7.584c-2.763.744-5.714-.044-7.738-2.068 0 0-28.832-28.832-28.832-28.833-.24 12.544 4.423 25.162 14.025 34.764 14.003 14.003 34.646 17.513 51.968 10.391 2.986-1.227 6.416-.54 8.699 1.743l84.877 84.876c2.275 2.276 2.966 5.694 1.752 8.674-7.078 17.381-3.622 37.99 10.437 52.049 9.568 9.568 22.201 14.246 34.756 14.018l-28.825-28.825c-2.019-2.019-2.809-4.961-2.072-7.72l7.527-28.198c.738-2.767 2.899-4.928 5.666-5.666l28.199-7.528c2.759-.736 5.701.054 7.72 2.073zm-123.446-34.534c-11.835-11.836-26.604-26.605-38.162-38.163l-77.845 77.845c-1.933 1.933-2.845 4.676-2.681 7.572.189 3.354 1.755 6.621 4.26 9.127l19.885 19.884c2.505 2.506 5.773 4.072 9.126 4.261 2.897.163 5.64-.749 7.572-2.681zm17.42-66.324c3.551 3.551 7.172 7.173 10.742 10.742l51.296-51.297-10.742-10.741zm114.685-46.111-45.624-45.624c-1.947-1.947-9.443-6.968-11.924-8.231-17.827-9.074-35.824-10.605-50.167-3.566 27.177 11.712 44.834 30.025 46.365 31.647l43.562 43.562zm21.95.678s-39.084 39.084-39.084 39.084l10.742 10.742s39.084-39.085 39.084-39.085zm43.881 131.791s-70.735 30.297-70.735 30.297v62.663c0 41.824 29.957 78.164 70.735 86.436 40.803-8.271 70.761-44.611 70.761-86.436v-62.662zm-52.154 102.023-.017-.017c-7.667-7.639-7.664-20.03.009-27.665 7.627-7.618 19.961-7.632 27.63-.008.006.005.012.011.017.017l11.998 11.997 37.058-37.413.01-.01c7.595-7.642 19.96-7.684 27.602-.089 7.682 7.636 7.679 19.992.099 27.618-22.067 22.286-28.712 29.232-50.915 51.407-7.641 7.668-20.038 7.662-27.655-.001zm11.297-11.331 25.853 25.853c.005.006.011.012.017.017 1.378 1.387 3.616 1.387 4.995 0 .006-.007.013-.013.02-.02 22.177-22.15 28.814-29.088 50.855-51.347l.011-.011c1.374-1.382 1.37-3.619-.021-5.001-1.376-1.369-3.604-1.357-4.973.019l-42.706 43.116c-1.498 1.512-3.536 2.365-5.665 2.37-2.128.005-4.171-.838-5.676-2.343 0 0-17.667-17.667-17.667-17.667-1.401-1.39-3.652-1.406-5.043-.015-.006.006-.012.012-.017.017-1.387 1.379-1.387 3.617 0 4.995.005.006.011.011.017.017z"/></svg>