<?xml version="1.0" encoding="UTF-8" standalone="no"?>
<!-- Created with Inkscape (http://www.inkscape.org/) -->

<svg
   version="1.1"
   id="svg525"
   xml:space="preserve"
   width="682.66669"
   height="682.66669"
   viewBox="0 0 682.66669 682.66669"
   xmlns="http://www.w3.org/2000/svg"
   xmlns:svg="http://www.w3.org/2000/svg"><defs
     id="defs529"><clipPath
       clipPathUnits="userSpaceOnUse"
       id="clipPath539"><path
         d="M 0,512 H 512 V 0 H 0 Z"
         id="path537" /></clipPath></defs><g
     id="g531"
     transform="matrix(1.3333333,0,0,-1.3333333,0,682.66667)"><g
       id="g533"><g
         id="g535"
         clip-path="url(#clipPath539)"><path
           d="M 15.042,15 H 496.958 V 88.78 H 15.042 Z"
           style="fill:none;stroke:#000000;stroke-width:30;stroke-linecap:round;stroke-linejoin:round;stroke-miterlimit:10;stroke-dasharray:none;stroke-opacity:1"
           id="path541" /><g
           id="g543"
           transform="translate(79.8193,88.7798)"><path
             d="M 0,0 31,-73.78"
             style="fill:none;stroke:#000000;stroke-width:30;stroke-linecap:round;stroke-linejoin:round;stroke-miterlimit:10;stroke-dasharray:none;stroke-opacity:1"
             id="path545" /></g><g
           id="g547"
           transform="translate(160.1387,88.7798)"><path
             d="M 0,0 31,-73.78"
             style="fill:none;stroke:#000000;stroke-width:30;stroke-linecap:round;stroke-linejoin:round;stroke-miterlimit:10;stroke-dasharray:none;stroke-opacity:1"
             id="path549" /></g><g
           id="g551"
           transform="translate(240.458,88.7798)"><path
             d="M 0,0 31,-73.78"
             style="fill:none;stroke:#000000;stroke-width:30;stroke-linecap:round;stroke-linejoin:round;stroke-miterlimit:10;stroke-dasharray:none;stroke-opacity:1"
             id="path553" /></g><g
           id="g555"
           transform="translate(320.7773,88.7798)"><path
             d="M 0,0 31,-73.78"
             style="fill:none;stroke:#000000;stroke-width:30;stroke-linecap:round;stroke-linejoin:round;stroke-miterlimit:10;stroke-dasharray:none;stroke-opacity:1"
             id="path557" /></g><g
           id="g559"
           transform="translate(401.0967,88.7798)"><path
             d="M 0,0 31,-73.78"
             style="fill:none;stroke:#000000;stroke-width:30;stroke-linecap:round;stroke-linejoin:round;stroke-miterlimit:10;stroke-dasharray:none;stroke-opacity:1"
             id="path561" /></g><g
           id="g563"
           transform="translate(324.731,399.6968)"><path
             d="m 0,0 h -138.39 c -9.585,0 -18.023,-6.315 -20.727,-15.51 l -59.116,-201.078 c -4.068,-13.836 6.304,-27.697 20.726,-27.697 H 60.209 c 14.467,0 24.846,13.942 20.696,27.8 L 20.695,-15.407 C 17.958,-6.263 9.544,0 0,0 Z"
             style="fill:none;stroke:#000000;stroke-width:30;stroke-linecap:round;stroke-linejoin:round;stroke-miterlimit:10;stroke-dasharray:none;stroke-opacity:1"
             id="path565" /></g><g
           id="g567"
           transform="translate(256,497)"><path
             d="m 0,0 v 0 c -26.87,0 -48.652,-21.782 -48.652,-48.651 v -48.652 h 97.304 v 48.652 C 48.652,-21.782 26.87,0 0,0 Z"
             style="fill:none;stroke:#000000;stroke-width:30;stroke-linecap:round;stroke-linejoin:round;stroke-miterlimit:10;stroke-dasharray:none;stroke-opacity:1"
             id="path569" /></g><g
           id="g571"
           transform="translate(255.2964,336.7402)"><path
             d="m 0,0 v -118.372 l -33.611,30.754"
             style="fill:none;stroke:#000000;stroke-width:30;stroke-linecap:round;stroke-linejoin:round;stroke-miterlimit:10;stroke-dasharray:none;stroke-opacity:1"
             id="path573" /></g><g
           id="g575"
           transform="translate(255.2964,218.3682)"><path
             d="M 0,0 35.019,30.754"
             style="fill:none;stroke:#000000;stroke-width:30;stroke-linecap:round;stroke-linejoin:round;stroke-miterlimit:10;stroke-dasharray:none;stroke-opacity:1"
             id="path577" /></g></g></g></g></svg>
