<?xml version="1.0" encoding="UTF-8" standalone="no"?>
<!-- Created with Inkscape (http://www.inkscape.org/) -->
<svg xmlns="http://www.w3.org/2000/svg" xmlns:svg="http://www.w3.org/2000/svg" version="1.1" id="svg2034" width="682.66669" height="682.66669" viewBox="0 0 682.66669 682.66669">
  <defs id="defs2038">
    <clipPath clipPathUnits="userSpaceOnUse" id="clipPath2048">
      <path d="M 0,512 H 512 V 0 H 0 Z" id="path2046"/>
    </clipPath>
  </defs>
  <mask id="custom"><rect id="bg" x="0" y="0" width="100%" height="100%" fill="white"/><g transform="matrix(1.3333333,0,0,-1.3333333,0,682.66667)"/></mask><g mask="url(#custom)"><g id="g2040" transform="matrix(1.3333333,0,0,-1.3333333,0,682.66667)">
    <g id="g2042">
      <g id="g2044" clip-path="url(#clipPath2048)">
        <g id="g2050" transform="translate(324.8237,183.0244)">
          <path d="M 0,0 C 0,0 -5.692,-19.258 -25.212,-14.476 -44.732,-9.694 -90.963,1.438 -90.963,1.438" style="fill:none;stroke:#000000;stroke-width:15;stroke-linecap:round;stroke-linejoin:round;stroke-miterlimit:10;stroke-dasharray:none;stroke-opacity:1" id="path2052"/>
        </g>
        <g id="g2054" transform="translate(146.54,99.1778)">
          <path d="m 0,0 -97.244,77.84 c -4.998,4.001 -12.313,3.083 -16.166,-2.028 l -22.23,-29.207 c -5.409,-7.106 -4.243,-17.215 2.642,-22.903 l 88.025,-72.73 c 7.303,-6.034 18.168,-4.755 23.879,2.804 13.426,17.771 23.142,30.631 23.253,30.778 C 5.647,-10.539 4.701,-3.763 0,0 Z" style="fill:none;stroke:#000000;stroke-width:15;stroke-linecap:round;stroke-linejoin:round;stroke-miterlimit:10;stroke-dasharray:none;stroke-opacity:1" id="path2056"/>
        </g>
        <g id="g2058" transform="translate(97.5381,465.6602)">
          <path d="M 0,0 C 0,0 105.227,-128.909 344.727,-112.409" style="fill:none;stroke:#000000;stroke-width:15;stroke-linecap:round;stroke-linejoin:round;stroke-miterlimit:10;stroke-dasharray:none;stroke-opacity:1" id="path2060"/>
        </g>
        <g id="g2062" transform="translate(383.7353,131.6377)">
          <path d="m 0,0 c 34.161,15.111 69.702,30.832 78.133,34.561 4.44,2.277 26.765,15.671 16.762,38.414 C 83.302,97.185 56.618,85.741 54.377,84.903 L -58.912,51.386 c 0,0 7.756,22.786 -15.729,32.159 -65.09,25.985 -72.852,30.378 -89.324,30.64 l -0.002,0.002 c -50.922,-0.17 -60.147,-0.586 -85.454,-11.913 -31.07,-13.904 -58.468,-34.711 -80.563,-60.46 l 88.484,-70.828 0.896,1.297 c 15.387,22.245 43.419,24.816 67.763,15.1 l 52.156,-20.821 c 9.182,-3.165 30.274,-8.092 52.161,3.127 0.011,0.005 0.019,0.008 0.019,0.008 4.535,2.007 18.583,8.22 36.335,16.073" style="fill:none;stroke:#000000;stroke-width:15;stroke-linecap:round;stroke-linejoin:round;stroke-miterlimit:10;stroke-dasharray:none;stroke-opacity:1" id="path2064"/>
        </g>
        <g id="g2066" transform="translate(401.6723,302.6909)">
          <path d="m 0,0 c 4.816,0.469 9.653,0.995 14.532,1.636 52.433,6.881 76.472,31.517 85.485,43.989 3.219,4.455 3.71,10.328 1.277,15.257 -7.185,14.551 -28.016,44.08 -78.762,44.059 h -0.047 c -3.003,0 -5.845,-1.352 -7.674,-3.733 L 4.881,88.283 c -3.687,-4.8 -11.351,-2.514 -11.803,3.521 -0.198,2.641 -0.403,5.388 -0.604,8.082 -0.328,4.391 -3.612,7.969 -7.953,8.709 -20.291,3.455 -41.549,8.98 -61.07,14.903 -5.197,1.576 -10.833,0.625 -15.25,-2.534 l -24.754,-17.706 c -3.613,-2.584 -8.357,1.168 -6.674,5.279 l 4.057,9.905 c 3.738,9.133 -0.788,19.56 -10.017,23.056 -9.66,3.658 -16.729,6.535 -20.059,7.913 -1.433,0.593 -2.933,1.019 -4.472,1.203 -29.999,3.587 -60.337,-8.309 -79.434,-18.132 -13.034,-6.703 -21.095,-20.26 -20.902,-34.916 0.044,-3.324 0.18,-6.46 0.393,-9.413 1.815,-25.187 18.107,-47.09 41.618,-56.304 29.666,-11.627 60.601,-20.954 93.032,-26.864 7.546,-1.375 15.225,1.619 19.809,7.768 l 6.234,8.363 c 2.634,3.534 8.055,3.103 10.09,-0.807 1.644,-3.161 3.607,-6.961 5.637,-10.952 3.305,-6.497 9.848,-10.7 17.131,-11.016 8.284,-0.36 16.671,-0.464 25.149,-0.33" style="fill:none;stroke:#000000;stroke-width:15;stroke-linecap:round;stroke-linejoin:round;stroke-miterlimit:10;stroke-dasharray:none;stroke-opacity:1" id="path2068"/>
        </g>
      </g>
    </g>
  </g></g>
</svg>
