<svg height="512" viewBox="0 0 64 64" width="512" xmlns="http://www.w3.org/2000/svg"><g id="hanger"><path d="m37.219 60.085h-9.128a1 1 0 0 1 -1-1.053l3-57.085a1 1 0 0 1 1-.947h3.128a1 1 0 0 1 1 .947l3 57.085a1 1 0 0 1 -1 1.053zm-8.074-2h7.02l-2.895-55.085h-1.23z"/><path d="m42.187 63h-19.064a1 1 0 0 1 -1-1v-1.287a2.631 2.631 0 0 1 2.628-2.628h15.808a2.631 2.631 0 0 1 2.628 2.628v1.287a1 1 0 0 1 -1 1zm-18.064-2h17.064v-.287a.628.628 0 0 0 -.628-.628h-15.808a.628.628 0 0 0 -.628.628z"/><path d="m29.816 27.32a1.093 1.093 0 0 1 -.139-.009l-13.232-1.846a3.062 3.062 0 0 1 -2.292.8 3.05 3.05 0 1 1 2.589-4.965l13.285.029a1 1 0 0 1 0 2l-13.827-.029a1 1 0 0 1 -.887-.541 1.046 1.046 0 0 0 -.859-.581 1.016 1.016 0 0 0 -.765.254 1.048 1.048 0 0 0 .613 1.839 1.013 1.013 0 0 0 .932-.446 1 1 0 0 1 .956-.415l13.76 1.92a1 1 0 0 1 -.137 1.99z"/><path d="m29.2 39.24a.938.938 0 0 1 -.139-.01l-13.884-1.93a3.051 3.051 0 0 1 -5.11-2.455 3.049 3.049 0 0 1 5.409-1.719l13.931.029a1 1 0 0 1 0 2l-14.47-.03a1 1 0 0 1 -.892-.553 1.038 1.038 0 0 0 -.856-.57 1.055 1.055 0 1 0 .782 1.658 1 1 0 0 1 .956-.415l14.41 2.01a1 1 0 0 1 -.137 1.99z"/><path d="m34.773 13.73a1 1 0 0 1 -.136-1.99l13.9-1.94a.991.991 0 0 1 .951.408 1.067 1.067 0 0 0 .94.454 1.046 1.046 0 0 0 .972-1.122 1.046 1.046 0 0 0 -1.983-.4 1 1 0 0 1 -.887.541l-13.96.03a1 1 0 0 1 0-2l13.42-.03a3.051 3.051 0 1 1 4.664 3.933 3.039 3.039 0 0 1 -4.364.24l-13.377 1.867a.94.94 0 0 1 -.14.009z"/><path d="m36.253 41.74a1 1 0 0 1 -.136-1.99l12.96-1.811a1 1 0 0 1 .956.416 1.026 1.026 0 0 0 .925.447 1.055 1.055 0 0 0 .98-1.121 1.076 1.076 0 0 0 -1.132-.984 1.038 1.038 0 0 0 -.847.571 1 1 0 0 1 -.893.552l-13.02.02a1 1 0 0 1 0-2l12.481-.019a3.035 3.035 0 0 1 2.128-1.121 3.085 3.085 0 0 1 3.278 2.837 3.049 3.049 0 0 1 -5.111 2.454l-12.429 1.739a.942.942 0 0 1 -.14.01z"/></g></svg>