<svg id="lyne" viewBox="0 0 64 64" xmlns="http://www.w3.org/2000/svg"><path d="m55.57 29.38a1 1 0 0 0 -1-.89h-6.64a1 1 0 0 0 0 2h3.87l-15.58 12.84a.72.72 0 0 1 -1-.13l-3.67-5.11 8.71-7.17-.85 3.5a1 1 0 0 0 1.94.47l1.56-6.42a1 1 0 0 0 -1-1.23h-6.66a1 1 0 0 0 0 2h3.88l-8.78 7.23-5.42-7.55a1 1 0 0 0 -1.62 1.16l5.5 7.66-5.26 4.34a.74.74 0 0 1 -1-.13l-10.3-14.29a1 1 0 0 0 -1.62 1.17l10.26 14.28a2.71 2.71 0 0 0 1.85 1.11 2.75 2.75 0 0 0 2.08-.6l5.18-4.25 3.59 5a2.73 2.73 0 0 0 3.93.5l15.42-12.7-.85 3.5a1 1 0 1 0 1.94.47l1.56-6.41a1.37 1.37 0 0 0 -.02-.35z"/><path d="m52.15 48.09h-42.74a1 1 0 0 0 -1 1v8.65a1 1 0 0 0 1 1h22.33a1 1 0 0 0 1.31 0h19.1a1 1 0 0 0 1-1v-8.65a1 1 0 0 0 -1-1zm-1 8.65h-9.15l2-3.16a1 1 0 0 0 -1.68-1.08l-2.76 4.24h-5.17l2-3.15a1 1 0 0 0 -.29-1.38 1 1 0 0 0 -1.38.29l-2.72 4.24h-5.21l2.05-3.16a1 1 0 0 0 -1.68-1.08l-2.76 4.24h-5.22l2.05-3.16a1 1 0 0 0 -1.67-1.08l-2.76 4.24h-6.39v-6.65h40.74z"/><path d="m30.8 26.87c2.42 0 4.31-2.63 4.31-6s-3.6-5.72-3.75-5.82a1 1 0 0 0 -1.12 0c-.15.1-3.75 2.57-3.75 5.82s1.89 6 4.31 6zm0-9.71c.94.79 2.31 2.26 2.31 3.73 0 2.35-1.22 4-2.31 4s-2.31-1.63-2.31-4c0-1.47 1.37-2.89 2.31-3.73z"/><path d="m18.12 26.75c1.91 0 3.4-2 3.4-4.61s-2.52-4.24-2.84-4.43a1 1 0 0 0 -1.11 0c-.3.19-2.84 2-2.84 4.43s1.49 4.61 3.39 4.61zm0-6.94a3.63 3.63 0 0 1 1.4 2.33c0 1.49-.74 2.61-1.4 2.61s-1.39-1.12-1.39-2.61a3.65 3.65 0 0 1 1.39-2.33z"/><path d="m44.74 24.24c1.91 0 3.4-2 3.4-4.61s-2.55-4.24-2.84-4.43a1 1 0 0 0 -1.12 0c-.29.19-2.83 2-2.83 4.43s1.49 4.61 3.39 4.61zm0-6.94a3.69 3.69 0 0 1 1.4 2.33c0 1.5-.74 2.61-1.4 2.61s-1.39-1.11-1.39-2.61a3.68 3.68 0 0 1 1.39-2.33z"/><path d="m37.14 15.46c1.9 0 3.39-2 3.39-4.6s-2.53-4.24-2.83-4.44a1 1 0 0 0 -1.12 0c-.29.2-2.84 2-2.84 4.44s1.49 4.6 3.4 4.6zm0-6.93a3.65 3.65 0 0 1 1.39 2.33c0 1.49-.73 2.6-1.39 2.6s-1.4-1.11-1.4-2.6a3.64 3.64 0 0 1 1.4-2.33z"/><path d="m23.19 14.21c1.91 0 3.4-2 3.4-4.6s-2.59-4.24-2.84-4.44a1 1 0 0 0 -1.11 0c-.3.2-2.84 2-2.84 4.44s1.49 4.6 3.39 4.6zm0-6.94a3.65 3.65 0 0 1 1.4 2.34c0 1.49-.74 2.6-1.4 2.6s-1.39-1.11-1.39-2.6a3.68 3.68 0 0 1 1.39-2.34z"/></svg>